<?xml version="1.0" encoding="utf-8"?>
<!-- Generator: Adobe Illustrator 16.0.0, SVG Export Plug-In . SVG Version: 6.00 Build 0)  -->
<!DOCTYPE svg PUBLIC "-//W3C//DTD SVG 1.1//EN" "http://www.w3.org/Graphics/SVG/1.1/DTD/svg11.dtd">
<svg version="1.1" id="Layer_1" xmlns="http://www.w3.org/2000/svg" xmlns:xlink="http://www.w3.org/1999/xlink" x="0px" y="0px"
	 width="140px" height="140px" viewBox="0 0 140 140" enable-background="new 0 0 140 140" xml:space="preserve">
<g>
	<g>
		<path fill="#FFFFFF" d="M71.045,3.965h-0.003c0-0.001,0-0.004,0-0.006c0-0.53-0.429-0.959-0.958-0.959s-0.96,0.429-0.96,0.959
			c0,0.002,0.001,0.005,0.001,0.006h-0.001l-3.436,58.598h0.001c0.013,2.417,1.975,4.373,4.395,4.373s4.381-1.956,4.394-4.373h0.001
			L71.045,3.965z"/>
		<path fill="#FFFFFF" d="M11.373,98.801l-0.001-0.003c-0.002,0.002-0.003,0.003-0.004,0.003c-0.48,0.225-1.052,0.019-1.277-0.461
			c-0.225-0.48-0.019-1.051,0.461-1.276c0.001-0.001,0.004-0.001,0.005-0.001v-0.002l51.582-28.014v0.001
			c2.193-1.016,4.797-0.07,5.824,2.12c1.029,2.19,0.094,4.796-2.089,5.834v0.002L11.373,98.801z"/>
		<path fill="#FFFFFF" d="M128.627,98.801l0.001-0.003c0.001,0.002,0.003,0.003,0.005,0.003c0.479,0.225,1.05,0.019,1.276-0.461
			c0.225-0.48,0.018-1.051-0.461-1.276c-0.002-0.001-0.004-0.001-0.006-0.001v-0.002L77.86,69.047v0.001
			c-2.192-1.016-4.796-0.07-5.824,2.12c-1.029,2.19-0.093,4.796,2.09,5.834v0.002L128.627,98.801z"/>
	</g>
</g>
</svg>
